<?xml version="1.0" encoding="UTF-8"?>
<!-- Generator: visioncortex VTracer 0.6.3 -->
<svg version="1.1" xmlns="http://www.w3.org/2000/svg" width="1280" height="1280">
<path d="M0 0 C1.14 -0.02 2.29 -0.04 3.46 -0.06 C8.73 -0.12 14 -0.17 19.27 -0.2 C22.03 -0.21 24.79 -0.25 27.55 -0.3 C49.07 -0.68 68.18 0.23 85.26 14.87 C91.79 21.5 96.41 31.46 99.32 40.21 C103.49 43.46 107.47 45.09 112.51 46.58 C126.88 51.1 137.6 58.09 145.32 71.21 C148.45 77.61 150.78 84.13 152.45 91.05 C153.64 93.98 154.81 95.26 157.32 97.21 C160.13 98.39 163.02 99.23 165.95 100.08 C173.05 102.31 179.26 104.79 185.32 109.21 C185.95 109.65 186.58 110.08 187.23 110.53 C197.9 118.7 202.97 132.87 206.55 145.37 C207.72 148.16 209.35 149.79 212.14 150.99 C212.81 151.18 213.48 151.37 214.17 151.57 C214.91 151.79 215.66 152.02 216.43 152.25 C217.22 152.48 218.01 152.72 218.82 152.96 C226.48 155.37 232.86 158.36 239.32 163.21 C240.93 164.35 240.93 164.35 242.57 165.52 C251.31 174.06 255.35 184.51 259.22 195.84 C260.63 199.95 261.62 201.94 265.32 204.21 C267.66 205.04 270.01 205.81 272.39 206.52 C286.8 211.09 297.57 218.03 305.32 231.21 C308.45 237.61 310.78 244.13 312.45 251.05 C313.64 253.98 314.81 255.26 317.32 257.21 C320.13 258.39 323.02 259.23 325.95 260.08 C333.05 262.31 339.26 264.79 345.32 269.21 C345.95 269.65 346.58 270.08 347.23 270.53 C357.9 278.7 362.97 292.87 366.55 305.37 C367.72 308.16 369.35 309.79 372.14 310.99 C372.81 311.18 373.48 311.37 374.17 311.57 C374.91 311.79 375.66 312.02 376.43 312.25 C377.22 312.48 378.01 312.72 378.82 312.96 C386.48 315.37 392.86 318.36 399.32 323.21 C400.93 324.35 400.93 324.35 402.57 325.52 C411.31 334.06 415.35 344.51 419.22 355.84 C420.63 359.95 421.62 361.94 425.32 364.21 C427.66 365.04 430.01 365.81 432.39 366.52 C446.8 371.09 457.57 378.03 465.32 391.21 C468.45 397.61 470.78 404.13 472.45 411.05 C473.64 413.98 474.81 415.26 477.32 417.21 C480.13 418.39 483.02 419.23 485.95 420.08 C493.05 422.31 499.26 424.79 505.32 429.21 C505.95 429.65 506.58 430.08 507.23 430.53 C517.89 438.69 522.92 452.81 526.55 465.27 C528.19 469.37 529.7 470.91 533.77 472.85 C535.14 473.39 536.51 473.93 537.89 474.46 C550.3 479.61 559.16 487.01 564.79 499.45 C568.98 509.99 570.64 518.93 570.69 530.22 C570.71 532.09 570.71 532.09 570.72 533.99 C570.74 536.62 570.75 539.25 570.75 541.88 C570.76 545.87 570.81 549.85 570.86 553.84 C570.87 556.4 570.88 558.97 570.88 561.53 C570.9 562.71 570.92 563.89 570.94 565.1 C570.87 578.09 566.17 589.83 557.33 599.36 C542.45 613.6 522.74 613.79 503.39 614.77 C500.17 614.94 496.95 615.11 493.72 615.29 C491.73 615.4 489.74 615.51 487.75 615.6 C480.12 616.03 475.31 617.29 469.86 622.87 C466.73 627.64 467.38 633.18 467.45 638.7 C467.44 640.08 467.43 641.46 467.42 642.84 C467.4 646.63 467.42 650.41 467.44 654.2 C467.46 658.29 467.44 662.37 467.43 666.46 C467.4 673.55 467.41 680.63 467.43 687.72 C467.46 698 467.45 708.29 467.43 718.57 C467.4 735.3 467.4 752.03 467.42 768.76 C467.44 784.93 467.45 801.1 467.44 817.27 C467.44 818.76 467.44 818.76 467.44 820.27 C467.43 830.17 467.43 840.07 467.42 849.97 C467.41 853.84 467.41 857.71 467.41 861.59 C467.41 863.5 467.41 865.42 467.4 867.33 C467.39 879.42 467.39 891.51 467.41 903.59 C467.41 909.73 467.41 915.87 467.41 922.01 C467.42 926.05 467.42 930.1 467.43 934.14 C467.46 950.2 467.35 966.24 466.89 982.29 C466.87 982.98 466.85 983.67 466.84 984.39 C466.29 1004.1 463.84 1026.75 450.32 1042.21 C449.74 1042.87 449.17 1043.54 448.57 1044.22 C445.87 1047.1 443.33 1049.34 439.82 1051.15 C435.98 1053.14 433.67 1056.03 430.94 1059.34 C429.32 1061.21 429.32 1061.21 426.82 1063.15 C424.39 1065.16 422.88 1067.05 421.01 1069.58 C408.56 1085.9 386.63 1090.52 367.32 1093.21 C360.39 1094.01 353.43 1094.45 346.47 1094.87 C345.47 1094.94 344.47 1095 343.44 1095.06 C318.03 1096.63 292.61 1096.63 267.15 1096.58 C260.02 1096.56 252.89 1096.57 245.76 1096.57 C232.61 1096.58 219.45 1096.57 206.29 1096.56 C193.28 1096.54 180.27 1096.53 167.26 1096.53 C166.44 1096.53 165.62 1096.53 164.78 1096.53 C161.47 1096.53 158.15 1096.53 154.84 1096.53 C124.76 1096.53 94.68 1096.51 64.6 1096.49 C36.31 1096.47 8.03 1096.45 -20.26 1096.45 C-21.13 1096.45 -22 1096.45 -22.9 1096.45 C-26.42 1096.45 -29.93 1096.45 -33.45 1096.45 C-35.2 1096.45 -36.96 1096.45 -38.71 1096.45 C-40.46 1096.45 -42.21 1096.45 -43.96 1096.45 C-71.93 1096.44 -99.9 1096.43 -127.87 1096.42 C-136.02 1096.41 -144.17 1096.41 -152.32 1096.41 C-169.44 1096.4 -186.55 1096.4 -203.66 1096.38 C-210.73 1096.37 -217.79 1096.37 -224.86 1096.37 C-273.79 1096.36 -273.79 1096.36 -295.87 1095.76 C-296.96 1095.73 -296.96 1095.73 -298.06 1095.7 C-325.94 1094.93 -325.94 1094.93 -336.61 1092.15 C-337.45 1091.93 -338.29 1091.71 -339.15 1091.49 C-353.45 1087.55 -366.06 1081.25 -374.44 1068.53 C-375.68 1066.21 -375.68 1066.21 -375.68 1064.21 C-376.26 1063.95 -376.85 1063.69 -377.45 1063.42 C-379.83 1062.12 -381.37 1060.72 -383.24 1058.77 C-383.82 1058.17 -384.4 1057.58 -384.99 1056.96 C-386.05 1055.86 -387.11 1054.76 -388.16 1053.65 C-389.8 1052.1 -391.51 1050.87 -393.36 1049.58 C-404.19 1041.5 -409.52 1031.56 -413.36 1018.9 C-413.57 1018.23 -413.77 1017.57 -413.98 1016.89 C-417.24 1005.48 -418.03 993.87 -418.3 982.07 C-418.33 980.62 -418.37 979.17 -418.41 977.73 C-418.79 962.43 -418.8 947.14 -418.76 931.84 C-418.75 927.72 -418.75 923.6 -418.75 919.47 C-418.74 914.19 -418.74 908.91 -418.73 903.62 C-418.71 890.58 -418.71 877.55 -418.72 864.51 C-418.72 863.56 -418.72 862.61 -418.72 861.63 C-418.72 856.78 -418.72 851.93 -418.73 847.08 C-418.73 837.16 -418.74 827.24 -418.74 817.32 C-418.74 816.33 -418.74 815.34 -418.74 814.31 C-418.75 798.14 -418.72 781.98 -418.69 765.81 C-418.67 749.15 -418.67 732.48 -418.7 715.82 C-418.71 705.57 -418.7 695.32 -418.67 685.07 C-418.64 678.07 -418.65 671.07 -418.67 664.06 C-418.69 660.02 -418.69 655.99 -418.66 651.95 C-418.63 648.25 -418.64 644.56 -418.67 640.86 C-418.68 638.89 -418.65 636.93 -418.62 634.96 C-418.72 628.74 -419.12 625 -423.55 620.42 C-427.86 616.67 -431.44 616.05 -437.05 615.56 C-438.33 615.44 -439.62 615.33 -440.95 615.21 C-441.63 615.15 -442.31 615.09 -443.01 615.02 C-493.25 610.49 -493.25 610.49 -508.43 594.52 C-514.18 587.57 -518.74 578.79 -518.89 569.71 C-518.9 568.58 -518.92 567.45 -518.94 566.28 C-519 561.07 -519.05 555.86 -519.08 550.65 C-519.1 547.92 -519.13 545.19 -519.18 542.46 C-519.59 520.07 -517.87 501.99 -501.86 484.9 C-496.75 480.05 -490.81 476.57 -484.36 473.77 C-477.47 469.76 -475.54 462.51 -472.91 455.42 C-467.52 441.42 -456.88 429.85 -443.24 423.52 C-440.48 422.33 -437.7 421.22 -434.9 420.15 C-434.02 419.82 -433.14 419.49 -432.24 419.15 C-431.07 418.73 -431.07 418.73 -429.87 418.3 C-425.03 415.9 -423.26 412.77 -421.55 407.73 C-421.32 407.04 -421.1 406.35 -420.86 405.65 C-415.56 390.52 -406.78 378.96 -392.38 371.5 C-389.17 370.01 -385.94 368.59 -382.68 367.21 C-380.97 366.48 -379.26 365.76 -377.55 365.02 C-376.87 364.74 -376.18 364.46 -375.48 364.17 C-371.98 362.31 -370.37 360.02 -369.1 356.33 C-368.83 355.58 -368.56 354.83 -368.28 354.05 C-368 353.26 -367.72 352.46 -367.43 351.65 C-363.86 342.04 -359.38 334.15 -351.68 327.21 C-351.2 326.74 -350.72 326.27 -350.23 325.79 C-342.7 318.73 -332.83 315.09 -323.27 311.58 C-317.98 308.78 -316.14 304.41 -314.24 298.96 C-308.46 283.44 -298.56 270.63 -283.24 263.52 C-280.48 262.33 -277.7 261.22 -274.9 260.15 C-273.58 259.66 -273.58 259.66 -272.24 259.15 C-271.46 258.87 -270.67 258.59 -269.87 258.3 C-265.03 255.9 -263.26 252.77 -261.55 247.73 C-261.32 247.04 -261.1 246.35 -260.86 245.65 C-255.56 230.52 -246.78 218.96 -232.38 211.5 C-229.17 210.01 -225.94 208.59 -222.68 207.21 C-220.97 206.48 -219.26 205.76 -217.55 205.02 C-216.87 204.74 -216.18 204.46 -215.48 204.17 C-211.98 202.31 -210.37 200.02 -209.1 196.33 C-208.83 195.58 -208.56 194.83 -208.28 194.05 C-208 193.26 -207.72 192.46 -207.43 191.65 C-203.86 182.04 -199.38 174.15 -191.68 167.21 C-191.2 166.74 -190.72 166.27 -190.23 165.79 C-182.7 158.73 -172.83 155.09 -163.27 151.58 C-157.98 148.78 -156.14 144.41 -154.24 138.96 C-148.46 123.44 -138.56 110.63 -123.24 103.52 C-120.48 102.33 -117.7 101.22 -114.9 100.15 C-114.02 99.82 -113.14 99.49 -112.24 99.15 C-111.46 98.87 -110.67 98.59 -109.87 98.3 C-105.03 95.9 -103.26 92.77 -101.55 87.73 C-101.32 87.04 -101.1 86.35 -100.86 85.65 C-95.56 70.52 -86.78 58.96 -72.38 51.5 C-69.17 50.01 -65.94 48.59 -62.68 47.21 C-60.97 46.48 -59.26 45.76 -57.55 45.02 C-56.87 44.74 -56.18 44.46 -55.48 44.17 C-50.66 41.61 -49.42 37.5 -47.49 32.65 C-42.18 20.03 -34.52 10.78 -21.62 5.48 C-14.46 2.69 -7.75 0.12 0 0 Z M-7.48 190.57 C-8.2 191.35 -8.2 191.35 -8.93 192.15 C-9.44 192.68 -9.96 193.21 -10.49 193.76 C-15.21 199.07 -16.87 204.68 -18.62 211.43 C-21.38 221.28 -27.32 228.31 -35.95 233.61 C-40.59 236.09 -45.02 237.57 -50.11 238.83 C-57.73 241.13 -63.47 245.39 -67.68 252.21 C-69.68 256.67 -70.99 261.33 -72.36 266.02 C-74.9 274.56 -80.3 281.26 -87.68 286.21 C-93.19 289.01 -98.7 291.01 -104.74 292.33 C-111.58 294.37 -116.88 299.26 -120.68 305.21 C-122.7 309.66 -123.99 314.33 -125.36 319.02 C-128.19 328.53 -134.63 335.82 -143.25 340.65 C-147.85 342.85 -152.1 344.33 -157.11 345.27 C-164.66 347.24 -170.46 352.79 -174.68 359.21 C-176.5 363.13 -177.54 367.25 -178.62 371.43 C-181.38 381.28 -187.32 388.31 -195.95 393.61 C-200.59 396.09 -205.02 397.57 -210.11 398.83 C-217.73 401.13 -223.47 405.39 -227.68 412.21 C-229.68 416.67 -230.99 421.33 -232.36 426.02 C-234.9 434.56 -240.3 441.26 -247.68 446.21 C-253.23 449.03 -258.8 451.03 -264.86 452.4 C-271.23 454.15 -274.83 459.11 -278.68 464.21 C-280.22 467.29 -279.82 470.54 -279.82 473.93 C-279.83 474.74 -279.83 475.55 -279.83 476.38 C-279.84 479.12 -279.85 481.87 -279.85 484.61 C-279.86 486.59 -279.86 488.56 -279.87 490.54 C-279.89 495.99 -279.9 501.44 -279.91 506.89 C-279.92 511.56 -279.93 516.23 -279.95 520.9 C-279.99 537.63 -280.03 554.36 -280.06 571.09 C-280.06 572.41 -280.06 573.73 -280.06 575.09 C-280.11 600.56 -280.14 626.04 -280.17 651.51 C-280.18 657.99 -280.18 664.47 -280.19 670.94 C-280.19 671.66 -280.19 672.37 -280.19 673.11 C-280.22 696.32 -280.27 719.52 -280.34 742.73 C-280.41 766.58 -280.46 790.43 -280.47 814.28 C-280.47 817.65 -280.47 821.02 -280.47 824.39 C-280.47 825.05 -280.48 825.71 -280.48 826.39 C-280.48 836.4 -280.51 846.41 -280.55 856.42 C-280.6 867.81 -280.62 879.2 -280.6 890.59 C-280.6 896.4 -280.6 902.21 -280.64 908.02 C-280.68 913.34 -280.68 918.66 -280.65 923.98 C-280.65 925.91 -280.66 927.83 -280.68 929.76 C-281.11 941.65 -281.11 941.65 -275.74 951.85 C-271.93 955.34 -269.68 956.33 -264.54 956.47 C-262.94 956.51 -262.94 956.51 -261.29 956.55 C-256.37 956.65 -251.45 956.72 -246.52 956.78 C-243.93 956.82 -241.34 956.87 -238.74 956.94 C-235 957.05 -231.26 957.09 -227.52 957.12 C-226.37 957.17 -225.22 957.21 -224.03 957.25 C-218.37 957.24 -214.27 956.65 -209.87 952.93 C-203.05 945.62 -204.46 936.06 -204.58 926.69 C-204.57 924.59 -204.56 922.49 -204.55 920.39 C-204.52 914.7 -204.56 909.02 -204.59 903.33 C-204.63 897.33 -204.61 891.34 -204.59 885.34 C-204.57 873.95 -204.6 862.56 -204.64 851.17 C-204.69 837.1 -204.69 823.03 -204.68 808.96 C-204.68 803.98 -204.68 798.99 -204.67 794.01 C-204.67 792.8 -204.67 791.59 -204.67 790.34 C-204.67 782.12 -204.69 773.89 -204.71 765.67 C-204.76 746.09 -204.76 726.52 -204.24 706.94 C-204.21 705.8 -204.21 705.8 -204.18 704.64 C-203.41 676.01 -203.41 676.01 -200.61 665.27 C-200.4 664.43 -200.18 663.6 -199.96 662.74 C-195.86 647.8 -189.33 635.49 -175.62 627.56 C-172.65 625.49 -170.55 622.82 -168.26 620.04 C-166.68 618.21 -166.68 618.21 -164.18 616.27 C-161.75 614.27 -160.32 612.43 -158.49 609.9 C-147.46 595.46 -128.01 590.32 -110.79 587.59 C-83.04 583.93 -54.87 583.89 -26.94 583.91 C-23.15 583.91 -19.36 583.9 -15.57 583.9 C-6.59 583.89 2.39 583.89 11.37 583.89 C20.49 583.9 29.61 583.89 38.73 583.87 C46.69 583.85 54.64 583.84 62.6 583.85 C67.29 583.85 71.99 583.84 76.68 583.83 C96.78 583.77 116.78 584.2 136.83 585.48 C137.74 585.54 138.64 585.59 139.57 585.65 C162.56 587.05 189.53 590.8 206.32 608.21 C207.59 609.91 208.76 611.65 209.94 613.42 C212.1 616.22 214.79 618.33 217.49 620.59 C219.32 622.21 219.32 622.21 221.26 624.71 C223.26 627.13 225.03 628.48 227.57 630.27 C242 641.26 247.15 661.26 249.66 678.49 C250.3 683.63 250.7 688.79 251.08 693.96 C251.24 696.11 251.41 698.27 251.58 700.42 C253.49 724.82 253.54 749.15 253.45 773.61 C253.42 780.73 253.41 787.85 253.42 794.97 C253.42 797.43 253.42 799.89 253.42 802.34 C253.42 804.19 253.42 804.19 253.42 806.07 C253.41 822.59 253.4 839.11 253.33 855.63 C253.28 866.86 253.27 878.09 253.29 889.32 C253.3 895.24 253.29 901.16 253.25 907.08 C253.21 912.62 253.2 918.16 253.24 923.71 C253.24 925.73 253.23 927.76 253.2 929.79 C252.69 942.33 252.69 942.33 258.52 952.91 C263.83 957.39 269.25 957.48 275.95 957.33 C277.14 957.34 278.33 957.34 279.56 957.35 C282.06 957.34 284.56 957.32 287.06 957.27 C290.88 957.21 294.69 957.23 298.51 957.26 C300.95 957.25 303.39 957.23 305.83 957.21 C306.96 957.22 308.09 957.22 309.26 957.23 C316.14 957.05 319.9 955.91 324.82 951 C328.27 946.89 328.58 944.57 328.59 939.28 C328.59 938.57 328.59 937.86 328.6 937.12 C328.61 934.72 328.61 932.31 328.6 929.9 C328.61 928.17 328.62 926.43 328.62 924.7 C328.64 919.91 328.64 915.13 328.64 910.34 C328.65 905.18 328.66 900.02 328.68 894.86 C328.7 883.56 328.72 872.26 328.72 860.96 C328.73 853.88 328.74 846.8 328.75 839.72 C328.77 820.08 328.79 800.44 328.8 780.8 C328.8 779.54 328.8 778.28 328.8 776.99 C328.8 775.73 328.8 774.46 328.8 773.16 C328.8 770.61 328.8 768.05 328.8 765.5 C328.8 764.23 328.81 762.96 328.81 761.65 C328.81 741.23 328.85 720.81 328.89 700.39 C328.94 679.36 328.97 658.33 328.97 637.3 C328.97 625.52 328.98 613.74 329.02 601.96 C329.68 543.8 329.68 543.8 325.53 485.85 C325.41 484.82 325.28 483.78 325.15 482.72 C324.8 479.93 324.41 477.16 324 474.38 C323.84 473.22 323.84 473.22 323.67 472.03 C322.9 467.41 321.61 464.56 318.32 461.21 C316.43 460.14 316.43 460.14 314.38 459.65 C313.64 459.44 312.9 459.22 312.13 458.99 C310.96 458.67 310.96 458.67 309.76 458.33 C302.11 456.01 295.75 453.07 289.32 448.21 C288.47 447.57 287.62 446.93 286.75 446.27 C277.88 438.73 274.03 427.34 270.46 416.61 C268.91 411.96 267.36 409.95 263.32 407.21 C259.91 405.88 259.91 405.88 256.2 404.83 C242.35 400.52 231.85 393.88 224.32 381.21 C221.21 374.84 218.88 368.37 217.29 361.46 C215.65 357.65 213.22 355.05 209.39 353.35 C207.15 352.59 204.91 351.92 202.64 351.27 C195.54 349.08 189.4 346.58 183.32 342.21 C182.27 341.49 181.22 340.76 180.14 340.02 C171.28 331.17 166.46 319.05 163.19 307.15 C161.72 303.87 159.85 301.84 156.49 300.44 C154.26 299.71 152.02 299.05 149.76 298.4 C142.13 296.03 135.74 293.06 129.32 288.21 C128.47 287.57 127.62 286.93 126.75 286.27 C117.88 278.73 114.03 267.34 110.46 256.61 C108.91 251.96 107.36 249.95 103.32 247.21 C99.91 245.88 99.91 245.88 96.2 244.83 C82.35 240.52 71.85 233.88 64.32 221.21 C61.21 214.84 58.88 208.37 57.29 201.46 C55.85 198.1 54.19 196.52 51.32 194.21 C48.04 193.18 44.72 192.82 41.31 192.44 C40.34 192.32 39.37 192.2 38.37 192.07 C35.27 191.68 32.17 191.32 29.07 190.96 C27 190.7 24.94 190.45 22.87 190.19 C18.19 189.6 13.51 189.03 8.83 188.5 C7.14 188.31 5.46 188.08 3.78 187.84 C2.59 187.68 2.59 187.68 1.37 187.51 C0.67 187.4 -0.03 187.3 -0.75 187.19 C-3.65 187.22 -5.44 188.64 -7.48 190.57 Z M-64.68 730.21 C-66.29 733.44 -65.84 736.99 -65.86 740.55 C-65.86 741.42 -65.87 742.3 -65.88 743.2 C-65.9 746.14 -65.92 749.09 -65.93 752.03 C-65.95 754.13 -65.96 756.24 -65.98 758.34 C-66.11 777.56 -66.17 796.78 -66.22 816 C-66.26 830.22 -66.33 844.43 -66.44 858.64 C-66.51 868.62 -66.55 878.61 -66.56 888.6 C-66.57 894.57 -66.6 900.53 -66.66 906.5 C-66.72 912.12 -66.73 917.73 -66.71 923.35 C-66.71 925.41 -66.73 927.47 -66.76 929.53 C-67.27 942.01 -67.27 942.01 -62.1 952.93 C-55.78 957.83 -48.53 957.47 -40.93 957.37 C-39.34 957.39 -37.76 957.4 -36.18 957.42 C-31.9 957.46 -27.63 957.45 -23.35 957.42 C-18.86 957.39 -14.37 957.42 -9.88 957.43 C-2.35 957.45 5.19 957.43 12.72 957.38 C21.42 957.33 30.11 957.35 38.81 957.4 C46.29 957.44 53.78 957.45 61.26 957.42 C65.72 957.41 70.18 957.41 74.65 957.44 C78.84 957.46 83.04 957.44 87.23 957.39 C88.77 957.38 90.3 957.38 91.84 957.4 C98.77 957.48 105.05 957.34 110.74 952.93 C116.85 945.55 115.56 935.62 115.46 926.58 C115.47 924.47 115.48 922.36 115.49 920.26 C115.53 914.55 115.5 908.85 115.47 903.14 C115.44 897.17 115.45 891.19 115.46 885.21 C115.47 875.18 115.44 865.15 115.39 855.11 C115.33 843.52 115.33 831.92 115.36 820.33 C115.38 809.16 115.37 798 115.34 786.84 C115.33 782.09 115.33 777.34 115.34 772.6 C115.35 767.01 115.33 761.42 115.28 755.83 C115.27 753.78 115.27 751.73 115.28 749.68 C115.84 737.59 115.84 737.59 110.95 727.05 C106.66 723.27 103.7 721.96 97.95 721.91 C97.3 721.91 96.65 721.9 95.98 721.89 C93.8 721.87 91.62 721.86 89.44 721.85 C87.88 721.84 86.31 721.83 84.75 721.81 C79.62 721.77 74.48 721.75 69.35 721.73 C67.58 721.72 65.81 721.72 64.04 721.71 C55.73 721.67 47.41 721.64 39.1 721.62 C29.51 721.6 19.93 721.55 10.34 721.47 C2.92 721.41 -4.49 721.38 -11.91 721.37 C-16.33 721.37 -20.76 721.35 -25.19 721.3 C-29.35 721.26 -33.52 721.25 -37.69 721.27 C-39.21 721.27 -40.74 721.26 -42.26 721.23 C-52.01 721.06 -58.34 722.22 -64.68 730.21 Z " fill="#000002" transform="translate(615.67626953125,93.791259765625)"/>
</svg>
